<svg width="256" height="256" viewBox="0 0 256 256" fill="none" xmlns="http://www.w3.org/2000/svg">
<rect width="256" height="256" fill="white"/>
<path d="M163.5 43L200.678 82.1349C201.184 82.6678 201.358 83.4355 201.129 84.1341L167.394 187.296C167.153 188.031 166.51 188.562 165.743 188.658L48.5431 203.432C48.1876 203.476 47.8265 203.425 47.4977 203.282L34.4487 197.628C33.5993 197.26 33.1135 196.357 33.2744 195.445L43.0857 139.848C43.3018 138.623 42.3598 137.5 41.1162 137.5H28.5864C26.8401 137.5 25.9325 135.419 27.1208 134.139L43.5 116.5" stroke="black" stroke-width="10"/>
<path d="M171.194 102.952C173.929 102.568 175.835 100.041 175.452 97.3059C175.068 94.5712 172.541 92.6651 169.806 93.0484L171.194 102.952ZM96.0239 116.677L91.3194 118.371L96.0239 116.677ZM65.4971 106.757L60.8547 104.9L65.4971 106.757ZM61.5029 116.743L66.1453 118.6L61.5029 116.743ZM44.9174 117.029L49.2049 114.457L44.9174 117.029ZM92.4761 106.823L97.1806 105.129L92.4761 106.823ZM118.244 105.326L117.55 100.374L118.244 105.326ZM116.617 106.697L121.379 108.221L116.617 106.697ZM118.938 110.277L171.194 102.952L169.806 93.0484L117.55 100.374L118.938 110.277ZM33.7125 108.072L40.6299 119.601L49.2049 114.457L42.2875 102.928L33.7125 108.072ZM46.6324 123H59.6459V113H46.6324V123ZM66.1453 118.6L70.1395 108.614L60.8547 104.9L56.8605 114.886L66.1453 118.6ZM67.3541 110.5H90.5943V100.5H67.3541V110.5ZM87.7717 108.516L91.3194 118.371L100.728 114.984L97.1806 105.129L87.7717 108.516ZM97.9057 123H111.54V113H97.9057V123ZM118.207 118.133L121.379 108.221L111.855 105.173L108.683 115.086L118.207 118.133ZM111.54 123C114.584 123 117.279 121.033 118.207 118.133L108.683 115.086C109.08 113.843 110.235 113 111.54 113V123ZM91.3194 118.371C92.3193 121.148 94.9539 123 97.9057 123V113C99.1707 113 100.3 113.794 100.728 114.984L91.3194 118.371ZM70.1395 108.614C69.6839 109.753 68.5808 110.5 67.3541 110.5V100.5C64.4917 100.5 61.9178 102.243 60.8547 104.9L70.1395 108.614ZM59.6459 123C62.5083 123 65.0822 121.257 66.1453 118.6L56.8605 114.886C57.3161 113.747 58.4192 113 59.6459 113V123ZM40.6299 119.601C41.895 121.71 44.1735 123 46.6324 123V113C47.6862 113 48.6627 113.553 49.2049 114.457L40.6299 119.601ZM90.5943 110.5C89.3293 110.5 88.2002 109.706 87.7717 108.516L97.1806 105.129C96.1807 102.352 93.5461 100.5 90.5943 100.5V110.5ZM117.55 100.374C114.888 100.747 112.674 102.612 111.855 105.173L121.379 108.221C121.028 109.318 120.079 110.117 118.938 110.277L117.55 100.374Z" fill="black"/>
<path d="M34.0959 76.8762C32.3707 79.0323 32.72 82.1788 34.8762 83.9041C37.0323 85.6293 40.1788 85.28 41.9041 83.1238L34.0959 76.8762ZM166.931 39.5005L66.1641 40.8832L66.3013 50.8822L167.069 49.4995L166.931 39.5005ZM60.7944 43.5092L34.0959 76.8762L41.9041 83.1238L68.6026 49.7568L60.7944 43.5092ZM66.1641 40.8832C64.0716 40.9119 62.1018 41.8752 60.7944 43.5092L68.6026 49.7568C68.0423 50.4571 67.198 50.8699 66.3013 50.8822L66.1641 40.8832Z" fill="black"/>
<path d="M112.333 167.489C115.088 167.305 117.173 164.923 116.989 162.167C116.805 159.412 114.423 157.327 111.667 157.511L112.333 167.489ZM37.3326 172.489L112.333 167.489L111.667 157.511L36.6674 162.511L37.3326 172.489Z" fill="black"/>
</svg>